<svg width="720" height="720" viewBox="0 0 720 720" fill="none" xmlns="http://www.w3.org/2000/svg">
  <defs>
    <linearGradient id="heroBg" x1="0" y1="0" x2="720" y2="720" gradientUnits="userSpaceOnUse">
      <stop stop-color="#E6FFFA" />
      <stop offset="1" stop-color="#F8FAFC" />
    </linearGradient>
  </defs>
  <rect width="720" height="720" rx="56" fill="url(#heroBg)" />
  <rect x="96" y="128" width="520" height="328" rx="48" fill="#FFFFFF" fill-opacity="0.92" />
  <rect x="152" y="220" width="416" height="236" rx="36" fill="#0F172A" fill-opacity="0.08" />
  <rect x="204" y="276" width="312" height="184" rx="32" fill="#0F172A" />
  <path d="M260 268C260 248.91 274.91 234 294 234H426C445.09 234 460 248.91 460 268V392C460 411.09 445.09 426 426 426H294C274.91 426 260 411.09 260 392V268Z" fill="#10B981" />
  <path d="M234 332H486" stroke="#0F172A" stroke-width="16" stroke-linecap="round" />
  <circle cx="402" cy="338" r="18" fill="#F8FAFC" />
  <path d="M168 116H552" stroke="#0F172A" stroke-width="8" stroke-linecap="round" opacity="0.6" />
  <path d="M196 164H524" stroke="#0F172A" stroke-width="8" stroke-linecap="round" opacity="0.6" />
  <circle cx="160" cy="568" r="72" fill="#10B981" fill-opacity="0.18" />
  <circle cx="560" cy="520" r="80" fill="#0F172A" fill-opacity="0.05" />
</svg>